<svg xmlns="http://www.w3.org/2000/svg" viewBox="0 0 900 560"><defs><linearGradient id="bg" x1="0" y1="0" x2="1" y2="1"><stop stop-color="#f6f0e8"/><stop offset="1" stop-color="#edf8fb"/></linearGradient><filter id="s"><feDropShadow dx="0" dy="16" stdDeviation="18" flood-color="#14345f" flood-opacity=".12"/></filter></defs><rect width="900" height="560" rx="42" fill="url(#bg)"/><rect x="80" y="390" width="740" height="55" rx="27" fill="#d4bb91" opacity=".4"/><g filter="url(#s)"><circle cx="310" cy="330" r="92" fill="#d69b59"/><ellipse cx="230" cy="328" rx="55" ry="82" fill="#bd864c"/><ellipse cx="390" cy="328" rx="55" ry="82" fill="#bd864c"/><circle cx="282" cy="318" r="11" fill="#3b2c1f"/><circle cx="337" cy="318" r="11" fill="#3b2c1f"/><ellipse cx="310" cy="350" rx="20" ry="15" fill="#3b2c1f"/><path d="M282 382c29 20 57 20 85 0" stroke="#3b2c1f" stroke-width="7" fill="none" stroke-linecap="round"/><rect x="610" y="185" width="135" height="260" rx="45" fill="#fff"/><ellipse cx="677" cy="186" rx="51" ry="15" fill="#27323a"/><circle cx="677" cy="252" r="22" fill="#14345f"/><g fill="#e6f2f7"><circle cx="635" cy="318" r="4"/><circle cx="655" cy="318" r="4"/><circle cx="675" cy="318" r="4"/><circle cx="695" cy="318" r="4"/><circle cx="715" cy="318" r="4"/><circle cx="635" cy="342" r="4"/><circle cx="655" cy="342" r="4"/><circle cx="675" cy="342" r="4"/><circle cx="695" cy="342" r="4"/><circle cx="715" cy="342" r="4"/><circle cx="635" cy="366" r="4"/><circle cx="655" cy="366" r="4"/><circle cx="675" cy="366" r="4"/><circle cx="695" cy="366" r="4"/><circle cx="715" cy="366" r="4"/><circle cx="635" cy="390" r="4"/><circle cx="655" cy="390" r="4"/><circle cx="675" cy="390" r="4"/><circle cx="695" cy="390" r="4"/><circle cx="715" cy="390" r="4"/><circle cx="635" cy="414" r="4"/><circle cx="655" cy="414" r="4"/><circle cx="675" cy="414" r="4"/><circle cx="695" cy="414" r="4"/><circle cx="715" cy="414" r="4"/><circle cx="635" cy="438" r="4"/><circle cx="655" cy="438" r="4"/><circle cx="675" cy="438" r="4"/><circle cx="695" cy="438" r="4"/><circle cx="715" cy="438" r="4"/></g></g><path d="M498 260c43-39 79-54 117-40M493 334c40-29 73-40 107-33" stroke="#b9ddec" stroke-width="6" fill="none" stroke-linecap="round" opacity=".85"/></svg>