<svg xmlns="http://www.w3.org/2000/svg" viewBox="0 0 900 560"><defs><linearGradient id="bg" x1="0" y1="0" x2="1" y2="1"><stop stop-color="#f8f3ec"/><stop offset="1" stop-color="#eaf6fb"/></linearGradient><filter id="s"><feDropShadow dx="0" dy="16" stdDeviation="18" flood-color="#14345f" flood-opacity=".12"/></filter></defs><rect width="900" height="560" rx="42" fill="url(#bg)"/><rect x="80" y="330" width="500" height="100" rx="38" fill="#eadfce"/><rect x="110" y="250" width="450" height="130" rx="45" fill="#f3eadf"/><g filter="url(#s)"><circle cx="240" cy="245" r="52" fill="#efbd9a"/><rect x="196" y="300" width="92" height="95" rx="36" fill="#7caac4"/><circle cx="362" cy="245" r="52" fill="#f0bf9b"/><rect x="318" y="300" width="92" height="95" rx="36" fill="#c9a57c"/><circle cx="485" cy="260" r="40" fill="#efbd9a"/><rect x="452" y="302" width="74" height="78" rx="30" fill="#94c3a3"/><rect x="640" y="230" width="110" height="210" rx="38" fill="#fff"/><ellipse cx="695" cy="231" rx="42" ry="13" fill="#22303a"/><circle cx="695" cy="284" r="18" fill="#14345f"/><g fill="#e6f2f7"><circle cx="665" cy="350" r="4"/><circle cx="682" cy="350" r="4"/><circle cx="699" cy="350" r="4"/><circle cx="716" cy="350" r="4"/><circle cx="665" cy="370" r="4"/><circle cx="682" cy="370" r="4"/><circle cx="699" cy="370" r="4"/><circle cx="716" cy="370" r="4"/></g></g></svg>