<svg xmlns="http://www.w3.org/2000/svg" viewBox="0 0 900 560"><defs><linearGradient id="bg" x1="0" y1="0" x2="1" y2="1"><stop stop-color="#f8f3ec"/><stop offset="1" stop-color="#edf8fb"/></linearGradient><filter id="s"><feDropShadow dx="0" dy="16" stdDeviation="18" flood-color="#14345f" flood-opacity=".12"/></filter></defs><rect width="900" height="560" rx="42" fill="url(#bg)"/><g filter="url(#s)"><rect x="180" y="210" width="450" height="36" rx="18" fill="#caa476"/><rect x="240" y="246" width="30" height="180" rx="10" fill="#b98f61"/><rect x="560" y="246" width="30" height="180" rx="10" fill="#b98f61"/><rect x="270" y="140" width="170" height="105" rx="14" fill="#17365f"/><rect x="292" y="162" width="126" height="58" rx="8" fill="#8ecde4" opacity=".7"/><rect x="665" y="150" width="110" height="290" rx="46" fill="#2c3136"/><rect x="648" y="330" width="145" height="42" rx="20" fill="#2c3136"/><rect x="105" y="232" width="105" height="200" rx="36" fill="#fff"/><ellipse cx="157" cy="232" rx="42" ry="13" fill="#26313a"/><circle cx="157" cy="284" r="17" fill="#14345f"/><g fill="#e6f2f7"><circle cx="132" cy="348" r="4"/><circle cx="149" cy="348" r="4"/><circle cx="166" cy="348" r="4"/><circle cx="183" cy="348" r="4"/><circle cx="132" cy="368" r="4"/><circle cx="149" cy="368" r="4"/><circle cx="166" cy="368" r="4"/><circle cx="183" cy="368" r="4"/></g></g></svg>