<svg xmlns="http://www.w3.org/2000/svg" viewBox="0 0 1100 520"><defs><linearGradient id="sky" x1="0" y1="0" x2="1" y2="1"><stop stop-color="#eaf6fb"/><stop offset="1" stop-color="#fff"/></linearGradient><filter id="s"><feDropShadow dx="0" dy="14" stdDeviation="18" flood-color="#14345f" flood-opacity=".12"/></filter></defs><rect width="1100" height="520" rx="42" fill="url(#sky)"/><rect y="386" width="1100" height="134" fill="#dcebdc" opacity=".55"/><g filter="url(#s)"><polygon points="260,160 790,100 930,218 390,290" fill="#fff" stroke="#d9e8ee" stroke-width="4"/><polygon points="390,290 930,218 930,398 390,458" fill="#f4f8fb" stroke="#d9e8ee" stroke-width="4"/><polygon points="260,160 390,290 390,458 260,315" fill="#e8f2f7" stroke="#d9e8ee" stroke-width="4"/><g fill="#bad9e8"><rect x="430" y="270" width="44" height="34" rx="4"/><rect x="500" y="270" width="44" height="34" rx="4"/><rect x="570" y="270" width="44" height="34" rx="4"/><rect x="640" y="270" width="44" height="34" rx="4"/><rect x="710" y="270" width="44" height="34" rx="4"/><rect x="780" y="270" width="44" height="34" rx="4"/><rect x="850" y="270" width="44" height="34" rx="4"/><rect x="430" y="322" width="44" height="34" rx="4"/><rect x="500" y="322" width="44" height="34" rx="4"/><rect x="570" y="322" width="44" height="34" rx="4"/><rect x="640" y="322" width="44" height="34" rx="4"/><rect x="710" y="322" width="44" height="34" rx="4"/><rect x="780" y="322" width="44" height="34" rx="4"/><rect x="850" y="322" width="44" height="34" rx="4"/><rect x="430" y="374" width="44" height="34" rx="4"/><rect x="500" y="374" width="44" height="34" rx="4"/><rect x="570" y="374" width="44" height="34" rx="4"/><rect x="640" y="374" width="44" height="34" rx="4"/><rect x="710" y="374" width="44" height="34" rx="4"/><rect x="780" y="374" width="44" height="34" rx="4"/><rect x="850" y="374" width="44" height="34" rx="4"/></g><text x="694" y="181" font-family="Inter, Arial" font-size="38" fill="#2b6fa5" font-weight="700" letter-spacing="5">AERLUNE</text></g><g fill="#6ea96c" opacity=".75"><circle cx="145" cy="385" r="42"/><circle cx="985" cy="388" r="48"/><circle cx="1017" cy="367" r="31"/><circle cx="117" cy="355" r="26"/></g></svg>