<svg xmlns="http://www.w3.org/2000/svg" viewBox="0 0 1000 580"><defs><linearGradient id="bg" x1="0" y1="0" x2="1" y2="1"><stop stop-color="#f9fcfd"/><stop offset="1" stop-color="#eaf5fb"/></linearGradient><filter id="s"><feDropShadow dx="0" dy="18" stdDeviation="18" flood-color="#14345f" flood-opacity=".12"/></filter></defs><rect width="1000" height="580" rx="42" fill="url(#bg)"/><g filter="url(#s)"><rect x="125" y="96" width="220" height="360" rx="62" fill="#fff" stroke="#dce8ef" stroke-width="4"/><ellipse cx="235" cy="98" rx="89" ry="24" fill="#dce7ec"/><ellipse cx="235" cy="94" rx="68" ry="14" fill="#aebcc7"/><g stroke="#d5e3ea" stroke-width="4"><line x1="150" y1="136" x2="150" y2="430"/><line x1="164" y1="136" x2="164" y2="430"/><line x1="178" y1="136" x2="178" y2="430"/><line x1="192" y1="136" x2="192" y2="430"/><line x1="206" y1="136" x2="206" y2="430"/><line x1="220" y1="136" x2="220" y2="430"/><line x1="234" y1="136" x2="234" y2="430"/><line x1="248" y1="136" x2="248" y2="430"/><line x1="262" y1="136" x2="262" y2="430"/><line x1="276" y1="136" x2="276" y2="430"/><line x1="290" y1="136" x2="290" y2="430"/><line x1="304" y1="136" x2="304" y2="430"/><line x1="318" y1="136" x2="318" y2="430"/></g><rect x="390" y="122" width="220" height="330" rx="56" fill="#252b31"/><ellipse cx="500" cy="124" rx="88" ry="24" fill="#171c21"/><g fill="#35414a"><circle cx="420" cy="168" r="7"/><circle cx="444" cy="168" r="7"/><circle cx="468" cy="168" r="7"/><circle cx="492" cy="168" r="7"/><circle cx="516" cy="168" r="7"/><circle cx="540" cy="168" r="7"/><circle cx="564" cy="168" r="7"/><circle cx="588" cy="168" r="7"/><circle cx="420" cy="196" r="7"/><circle cx="444" cy="196" r="7"/><circle cx="468" cy="196" r="7"/><circle cx="492" cy="196" r="7"/><circle cx="516" cy="196" r="7"/><circle cx="540" cy="196" r="7"/><circle cx="564" cy="196" r="7"/><circle cx="588" cy="196" r="7"/><circle cx="420" cy="224" r="7"/><circle cx="444" cy="224" r="7"/><circle cx="468" cy="224" r="7"/><circle cx="492" cy="224" r="7"/><circle cx="516" cy="224" r="7"/><circle cx="540" cy="224" r="7"/><circle cx="564" cy="224" r="7"/><circle cx="588" cy="224" r="7"/><circle cx="420" cy="252" r="7"/><circle cx="444" cy="252" r="7"/><circle cx="468" cy="252" r="7"/><circle cx="492" cy="252" r="7"/><circle cx="516" cy="252" r="7"/><circle cx="540" cy="252" r="7"/><circle cx="564" cy="252" r="7"/><circle cx="588" cy="252" r="7"/><circle cx="420" cy="280" r="7"/><circle cx="444" cy="280" r="7"/><circle cx="468" cy="280" r="7"/><circle cx="492" cy="280" r="7"/><circle cx="516" cy="280" r="7"/><circle cx="540" cy="280" r="7"/><circle cx="564" cy="280" r="7"/><circle cx="588" cy="280" r="7"/><circle cx="420" cy="308" r="7"/><circle cx="444" cy="308" r="7"/><circle cx="468" cy="308" r="7"/><circle cx="492" cy="308" r="7"/><circle cx="516" cy="308" r="7"/><circle cx="540" cy="308" r="7"/><circle cx="564" cy="308" r="7"/><circle cx="588" cy="308" r="7"/><circle cx="420" cy="336" r="7"/><circle cx="444" cy="336" r="7"/><circle cx="468" cy="336" r="7"/><circle cx="492" cy="336" r="7"/><circle cx="516" cy="336" r="7"/><circle cx="540" cy="336" r="7"/><circle cx="564" cy="336" r="7"/><circle cx="588" cy="336" r="7"/><circle cx="420" cy="364" r="7"/><circle cx="444" cy="364" r="7"/><circle cx="468" cy="364" r="7"/><circle cx="492" cy="364" r="7"/><circle cx="516" cy="364" r="7"/><circle cx="540" cy="364" r="7"/><circle cx="564" cy="364" r="7"/><circle cx="588" cy="364" r="7"/><circle cx="420" cy="392" r="7"/><circle cx="444" cy="392" r="7"/><circle cx="468" cy="392" r="7"/><circle cx="492" cy="392" r="7"/><circle cx="516" cy="392" r="7"/><circle cx="540" cy="392" r="7"/><circle cx="564" cy="392" r="7"/><circle cx="588" cy="392" r="7"/><circle cx="420" cy="420" r="7"/><circle cx="444" cy="420" r="7"/><circle cx="468" cy="420" r="7"/><circle cx="492" cy="420" r="7"/><circle cx="516" cy="420" r="7"/><circle cx="540" cy="420" r="7"/><circle cx="564" cy="420" r="7"/><circle cx="588" cy="420" r="7"/></g><rect x="660" y="156" width="220" height="260" rx="28" fill="#fff" stroke="#dce8ef" stroke-width="4"/><g stroke="#d6e4eb" stroke-width="5"><line x1="690" y1="180" x2="850" y2="180"/><line x1="690" y1="204" x2="850" y2="204"/><line x1="690" y1="228" x2="850" y2="228"/><line x1="690" y1="252" x2="850" y2="252"/><line x1="690" y1="276" x2="850" y2="276"/><line x1="690" y1="300" x2="850" y2="300"/><line x1="690" y1="324" x2="850" y2="324"/><line x1="690" y1="348" x2="850" y2="348"/><line x1="690" y1="372" x2="850" y2="372"/></g></g><path d="M80 122c68 31 119 78 154 143" stroke="#85b985" stroke-width="10" fill="none" stroke-linecap="round" opacity=".6"/><path d="M102 201c-43-3-72-22-89-58M143 250c-38 19-75 24-112 15" stroke="#85b985" stroke-width="8" fill="none" stroke-linecap="round" opacity=".6"/></svg>