<svg xmlns="http://www.w3.org/2000/svg" viewBox="0 0 1400 900">
<defs>
<linearGradient id="wall" x1="0" y1="0" x2="1" y2="1"><stop stop-color="#fbfaf6"/><stop offset="1" stop-color="#eaf6fb"/></linearGradient>
<linearGradient id="glass" x1="0" y1="0" x2="1" y2="1"><stop stop-color="#ffffff"/><stop offset="1" stop-color="#d8edf8"/></linearGradient>
<filter id="shadow" x="-20%" y="-20%" width="140%" height="140%"><feDropShadow dx="0" dy="24" stdDeviation="22" flood-color="#12345a" flood-opacity=".18"/></filter>
</defs>
<rect width="1400" height="900" fill="url(#wall)"/>
<rect x="870" y="68" width="410" height="440" rx="18" fill="url(#glass)" stroke="#d5e7f2"/>
<line x1="1075" y1="68" x2="1075" y2="508" stroke="#d5e7f2" stroke-width="7"/>
<line x1="870" y1="286" x2="1280" y2="286" stroke="#d5e7f2" stroke-width="7"/>
<circle cx="1238" cy="116" r="48" fill="#d7ead7" opacity=".75"/>
<circle cx="1180" cy="177" r="70" fill="#cfe7d2" opacity=".65"/>
<circle cx="1268" cy="244" r="60" fill="#d8efd9" opacity=".75"/>
<path d="M1210 390c35-90 87-168 150-226" stroke="#89b985" stroke-width="8" stroke-linecap="round" fill="none" opacity=".45"/>
<g opacity=".72" stroke="#a5c59b" stroke-width="7" fill="none" stroke-linecap="round"><path d="M1245 286c-44-24-73-55-83-92"/><path d="M1270 251c28-38 61-64 101-76"/><path d="M1205 350c-36-20-62-44-78-74"/></g>
<rect x="92" y="470" width="650" height="170" rx="54" fill="#f5eadc"/>
<rect x="140" y="390" width="550" height="150" rx="54" fill="#f2e7d9"/>
<rect x="208" y="345" width="120" height="170" rx="36" fill="#eadbca"/>
<rect x="315" y="345" width="145" height="170" rx="36" fill="#eadbca"/>
<rect x="455" y="345" width="145" height="170" rx="36" fill="#eadbca"/>
<rect x="168" y="603" width="88" height="132" rx="20" fill="#ccb99f"/>
<rect x="590" y="603" width="88" height="132" rx="20" fill="#ccb99f"/>
<ellipse cx="693" cy="770" rx="230" ry="48" fill="#d1b98e" opacity=".28"/>
<rect x="610" y="558" width="310" height="42" rx="20" fill="#caa476"/>
<rect x="672" y="598" width="32" height="126" rx="12" fill="#b98f61"/>
<rect x="835" y="598" width="32" height="126" rx="12" fill="#b98f61"/>
<rect x="954" y="325" width="270" height="465" rx="98" fill="#ffffff" filter="url(#shadow)"/>
<ellipse cx="1089" cy="329" rx="114" ry="38" fill="#d8dde2"/>
<ellipse cx="1089" cy="324" rx="94" ry="24" fill="#21272e"/>
<ellipse cx="1089" cy="325" rx="70" ry="13" fill="#3d4650"/>
<circle cx="1089" cy="452" r="45" fill="#14345f"/>
<text x="1089" y="463" font-family="Arial" font-size="30" fill="#80ddff" text-anchor="middle">24</text>
<text x="1089" y="482" font-family="Arial" font-size="13" fill="#c8f1ff" text-anchor="middle">PM2.5</text>
<g fill="#e7eff4">
<circle cx="982" cy="602" r="4"/><circle cx="997" cy="602" r="4"/><circle cx="1012" cy="602" r="4"/><circle cx="1027" cy="602" r="4"/><circle cx="1042" cy="602" r="4"/><circle cx="1057" cy="602" r="4"/><circle cx="1072" cy="602" r="4"/><circle cx="1087" cy="602" r="4"/><circle cx="1102" cy="602" r="4"/><circle cx="1117" cy="602" r="4"/><circle cx="1132" cy="602" r="4"/><circle cx="1147" cy="602" r="4"/><circle cx="1162" cy="602" r="4"/><circle cx="1177" cy="602" r="4"/><circle cx="1192" cy="602" r="4"/><circle cx="982" cy="624" r="4"/><circle cx="997" cy="624" r="4"/><circle cx="1012" cy="624" r="4"/><circle cx="1027" cy="624" r="4"/><circle cx="1042" cy="624" r="4"/><circle cx="1057" cy="624" r="4"/><circle cx="1072" cy="624" r="4"/><circle cx="1087" cy="624" r="4"/><circle cx="1102" cy="624" r="4"/><circle cx="1117" cy="624" r="4"/><circle cx="1132" cy="624" r="4"/><circle cx="1147" cy="624" r="4"/><circle cx="1162" cy="624" r="4"/><circle cx="1177" cy="624" r="4"/><circle cx="1192" cy="624" r="4"/><circle cx="982" cy="646" r="4"/><circle cx="997" cy="646" r="4"/><circle cx="1012" cy="646" r="4"/><circle cx="1027" cy="646" r="4"/><circle cx="1042" cy="646" r="4"/><circle cx="1057" cy="646" r="4"/><circle cx="1072" cy="646" r="4"/><circle cx="1087" cy="646" r="4"/><circle cx="1102" cy="646" r="4"/><circle cx="1117" cy="646" r="4"/><circle cx="1132" cy="646" r="4"/><circle cx="1147" cy="646" r="4"/><circle cx="1162" cy="646" r="4"/><circle cx="1177" cy="646" r="4"/><circle cx="1192" cy="646" r="4"/><circle cx="982" cy="668" r="4"/><circle cx="997" cy="668" r="4"/><circle cx="1012" cy="668" r="4"/><circle cx="1027" cy="668" r="4"/><circle cx="1042" cy="668" r="4"/><circle cx="1057" cy="668" r="4"/><circle cx="1072" cy="668" r="4"/><circle cx="1087" cy="668" r="4"/><circle cx="1102" cy="668" r="4"/><circle cx="1117" cy="668" r="4"/><circle cx="1132" cy="668" r="4"/><circle cx="1147" cy="668" r="4"/><circle cx="1162" cy="668" r="4"/><circle cx="1177" cy="668" r="4"/><circle cx="1192" cy="668" r="4"/><circle cx="982" cy="690" r="4"/><circle cx="997" cy="690" r="4"/><circle cx="1012" cy="690" r="4"/><circle cx="1027" cy="690" r="4"/><circle cx="1042" cy="690" r="4"/><circle cx="1057" cy="690" r="4"/><circle cx="1072" cy="690" r="4"/><circle cx="1087" cy="690" r="4"/><circle cx="1102" cy="690" r="4"/><circle cx="1117" cy="690" r="4"/><circle cx="1132" cy="690" r="4"/><circle cx="1147" cy="690" r="4"/><circle cx="1162" cy="690" r="4"/><circle cx="1177" cy="690" r="4"/><circle cx="1192" cy="690" r="4"/><circle cx="982" cy="712" r="4"/><circle cx="997" cy="712" r="4"/><circle cx="1012" cy="712" r="4"/><circle cx="1027" cy="712" r="4"/><circle cx="1042" cy="712" r="4"/><circle cx="1057" cy="712" r="4"/><circle cx="1072" cy="712" r="4"/><circle cx="1087" cy="712" r="4"/><circle cx="1102" cy="712" r="4"/><circle cx="1117" cy="712" r="4"/><circle cx="1132" cy="712" r="4"/><circle cx="1147" cy="712" r="4"/><circle cx="1162" cy="712" r="4"/><circle cx="1177" cy="712" r="4"/><circle cx="1192" cy="712" r="4"/><circle cx="982" cy="734" r="4"/><circle cx="997" cy="734" r="4"/><circle cx="1012" cy="734" r="4"/><circle cx="1027" cy="734" r="4"/><circle cx="1042" cy="734" r="4"/><circle cx="1057" cy="734" r="4"/><circle cx="1072" cy="734" r="4"/><circle cx="1087" cy="734" r="4"/><circle cx="1102" cy="734" r="4"/><circle cx="1117" cy="734" r="4"/><circle cx="1132" cy="734" r="4"/><circle cx="1147" cy="734" r="4"/><circle cx="1162" cy="734" r="4"/><circle cx="1177" cy="734" r="4"/><circle cx="1192" cy="734" r="4"/><circle cx="982" cy="756" r="4"/><circle cx="997" cy="756" r="4"/><circle cx="1012" cy="756" r="4"/><circle cx="1027" cy="756" r="4"/><circle cx="1042" cy="756" r="4"/><circle cx="1057" cy="756" r="4"/><circle cx="1072" cy="756" r="4"/><circle cx="1087" cy="756" r="4"/><circle cx="1102" cy="756" r="4"/><circle cx="1117" cy="756" r="4"/><circle cx="1132" cy="756" r="4"/><circle cx="1147" cy="756" r="4"/><circle cx="1162" cy="756" r="4"/><circle cx="1177" cy="756" r="4"/><circle cx="1192" cy="756" r="4"/><circle cx="982" cy="778" r="4"/><circle cx="997" cy="778" r="4"/><circle cx="1012" cy="778" r="4"/><circle cx="1027" cy="778" r="4"/><circle cx="1042" cy="778" r="4"/><circle cx="1057" cy="778" r="4"/><circle cx="1072" cy="778" r="4"/><circle cx="1087" cy="778" r="4"/><circle cx="1102" cy="778" r="4"/><circle cx="1117" cy="778" r="4"/><circle cx="1132" cy="778" r="4"/><circle cx="1147" cy="778" r="4"/><circle cx="1162" cy="778" r="4"/><circle cx="1177" cy="778" r="4"/><circle cx="1192" cy="778" r="4"/><circle cx="982" cy="800" r="4"/><circle cx="997" cy="800" r="4"/><circle cx="1012" cy="800" r="4"/><circle cx="1027" cy="800" r="4"/><circle cx="1042" cy="800" r="4"/><circle cx="1057" cy="800" r="4"/><circle cx="1072" cy="800" r="4"/><circle cx="1087" cy="800" r="4"/><circle cx="1102" cy="800" r="4"/><circle cx="1117" cy="800" r="4"/><circle cx="1132" cy="800" r="4"/><circle cx="1147" cy="800" r="4"/><circle cx="1162" cy="800" r="4"/><circle cx="1177" cy="800" r="4"/><circle cx="1192" cy="800" r="4"/></g>
<text x="1089" y="558" font-family="Inter, Arial" font-size="23" fill="#99a8b6" text-anchor="middle" letter-spacing="4">AERLUNE</text>
<path d="M810 332c-51-34-114-32-168 16M835 405c-74-51-179-48-265 22M833 504c-64-42-151-41-220 12" fill="none" stroke="#bdddec" stroke-width="4" stroke-linecap="round" opacity=".8"/>
<rect y="760" width="1400" height="140" fill="#e9dfd0" opacity=".48"/>
</svg>