<svg xmlns="http://www.w3.org/2000/svg" viewBox="0 0 900 560"><defs><linearGradient id="bg" x1="0" y1="0" x2="1" y2="1"><stop stop-color="#dff0dc"/><stop offset="1" stop-color="#eef9fb"/></linearGradient><filter id="s"><feDropShadow dx="0" dy="16" stdDeviation="18" flood-color="#14345f" flood-opacity=".12"/></filter></defs><rect width="900" height="560" rx="42" fill="url(#bg)"/><g opacity=".7"><circle cx="760" cy="120" r="90" fill="#fff" opacity=".32"/><circle cx="118" cy="480" r="150" fill="#fff" opacity=".22"/></g><g fill="none" stroke="#84b878" stroke-linecap="round"><path d="M200 370c22-105 70-184 140-250" stroke-width="9"/><path d="M284 244c-54-22-92-58-113-108" stroke-width="7"/><path d="M330 202c32-55 83-94 152-117" stroke-width="7"/><path d="M238 338c-50-17-90-47-120-90" stroke-width="7"/></g><g filter="url(#s)"><circle cx="555" cy="232" r="94" fill="#f3c9a7"/><path d="M477 217c20-88 112-122 178-64 46 41 44 99 18 154-58-24-121-24-196 0-30-42-30-72 0-90z" fill="#72523e"/><rect x="455" y="330" width="215" height="112" rx="48" fill="#91c0da"/><rect x="606" y="270" width="128" height="72" rx="18" transform="rotate(9 606 270)" fill="#fff" opacity=".9"/><path d="M570 269c28 27 62 27 90 0" stroke="#956650" stroke-width="7" fill="none" stroke-linecap="round"/></g><text x="54" y="500" font-family="Inter, Arial" font-size="38" fill="#12345a" font-weight="700">Allergy Relief</text></svg>