<svg xmlns="http://www.w3.org/2000/svg" viewBox="0 0 900 560"><defs><linearGradient id="bg" x1="0" y1="0" x2="1" y2="1"><stop stop-color="#eaf5fb"/><stop offset="1" stop-color="#fff1df"/></linearGradient><filter id="s"><feDropShadow dx="0" dy="16" stdDeviation="18" flood-color="#14345f" flood-opacity=".12"/></filter></defs><rect width="900" height="560" rx="42" fill="url(#bg)"/><g opacity=".7"><circle cx="760" cy="120" r="90" fill="#fff" opacity=".32"/><circle cx="118" cy="480" r="150" fill="#fff" opacity=".22"/></g><g filter="url(#s)"><circle cx="356" cy="250" r="115" fill="#dba25e"/><ellipse cx="250" cy="245" rx="72" ry="96" fill="#c48c4d"/><ellipse cx="462" cy="245" rx="72" ry="96" fill="#c48c4d"/><circle cx="322" cy="230" r="13" fill="#332519"/><circle cx="392" cy="230" r="13" fill="#332519"/><ellipse cx="356" cy="282" rx="24" ry="18" fill="#332519"/><path d="M328 318c34 29 70 29 105 0" fill="none" stroke="#332519" stroke-width="7" stroke-linecap="round"/><circle cx="584" cy="208" r="76" fill="#f1bf9b"/><path d="M514 198c8-88 96-116 146-60 25 28 27 64 15 104-49-25-103-21-160 10-6-17-7-35-1-54z" fill="#6d4b35"/><rect x="487" y="292" width="205" height="120" rx="50" fill="#90bac9"/></g><text x="54" y="500" font-family="Inter, Arial" font-size="38" fill="#12345a" font-weight="700">Pet Homes</text></svg>