<svg xmlns="http://www.w3.org/2000/svg" viewBox="0 0 900 560"><defs><linearGradient id="bg" x1="0" y1="0" x2="1" y2="1"><stop stop-color="#eff6fb"/><stop offset="1" stop-color="#f7efe8"/></linearGradient><filter id="s"><feDropShadow dx="0" dy="16" stdDeviation="18" flood-color="#14345f" flood-opacity=".12"/></filter></defs><rect width="900" height="560" rx="42" fill="url(#bg)"/><g opacity=".7"><circle cx="760" cy="120" r="90" fill="#fff" opacity=".32"/><circle cx="118" cy="480" r="150" fill="#fff" opacity=".22"/></g><g filter="url(#s)"><rect x="130" y="280" width="640" height="150" rx="65" fill="#fff"/><rect x="110" y="330" width="680" height="100" rx="42" fill="#e9f0f5"/><circle cx="520" cy="245" r="74" fill="#f1bf9b"/><path d="M455 235c14-74 75-101 134-70 36 19 55 53 51 99-60-26-119-18-190 27-4-21-2-40 5-56z" fill="#6b4734"/><path d="M500 254c26 22 58 22 84 0" stroke="#956650" stroke-width="7" fill="none" stroke-linecap="round"/><path d="M180 250c120-90 270-96 450-17" stroke="#b9ddec" stroke-width="7" fill="none" opacity=".85"/><text x="208" y="226" font-family="Arial" font-size="58" fill="#14345f" opacity=".5">☾</text></g><text x="54" y="500" font-family="Inter, Arial" font-size="38" fill="#12345a" font-weight="700">Better Sleep</text></svg>