<svg xmlns="http://www.w3.org/2000/svg" viewBox="0 0 900 560"><defs><linearGradient id="bg" x1="0" y1="0" x2="1" y2="1"><stop stop-color="#edf5f8"/><stop offset="1" stop-color="#f3eadf"/></linearGradient><filter id="s"><feDropShadow dx="0" dy="16" stdDeviation="18" flood-color="#14345f" flood-opacity=".12"/></filter></defs><rect width="900" height="560" rx="42" fill="url(#bg)"/><g opacity=".7"><circle cx="760" cy="120" r="90" fill="#fff" opacity=".32"/><circle cx="118" cy="480" r="150" fill="#fff" opacity=".22"/></g><g filter="url(#s)"><rect x="112" y="327" width="666" height="70" rx="24" fill="#2f2b27"/><ellipse cx="350" cy="326" rx="160" ry="35" fill="#49413a"/><path d="M275 315c29-44 64-62 111-55 40 6 68 25 89 57" stroke="#bd8b52" stroke-width="10" fill="none" stroke-linecap="round"/><path d="M310 243c-26-62 32-92 0-148M420 255c-54-92 52-102 1-188M530 270c-32-58 28-82 6-132" stroke="#fff" stroke-width="16" opacity=".66" fill="none" stroke-linecap="round"/><circle cx="620" cy="180" r="84" fill="#fff" opacity=".2"/></g><text x="54" y="500" font-family="Inter, Arial" font-size="38" fill="#12345a" font-weight="700">Smoke & Odor</text></svg>