<svg xmlns="http://www.w3.org/2000/svg" viewBox="0 0 700 820"><defs><filter id="s"><feDropShadow dx="0" dy="18" stdDeviation="18" flood-color="#11345a" flood-opacity=".16"/></filter></defs><rect width="700" height="820" rx="50" fill="#f7fbfd"/><ellipse cx="350" cy="745" rx="210" ry="42" fill="#12345a" opacity=".12"/><g filter="url(#s)"><rect x="140" y="60" width="420" height="660" rx="80" fill="#fff" stroke="#dce8ef" stroke-width="4"/><ellipse cx="350" cy="82" rx="132" ry="32" fill="#dbe4ea"/><ellipse cx="350" cy="78" rx="105" ry="18" fill="#2b333b"/><circle cx="350" cy="168" r="38" fill="#14345f"/><text x="350" y="181" font-size="27" fill="#8be0ff" text-anchor="middle" font-family="Arial">32</text><text x="350" y="300" font-family="Arial" font-size="23" fill="#94a4b3" text-anchor="middle" letter-spacing="4">AERLUNE</text><g><circle cx="190" cy="350" r="5" fill="#e6f2f7"/><circle cx="210" cy="350" r="5" fill="#e6f2f7"/><circle cx="230" cy="350" r="5" fill="#e6f2f7"/><circle cx="250" cy="350" r="5" fill="#e6f2f7"/><circle cx="270" cy="350" r="5" fill="#e6f2f7"/><circle cx="290" cy="350" r="5" fill="#e6f2f7"/><circle cx="310" cy="350" r="5" fill="#e6f2f7"/><circle cx="330" cy="350" r="5" fill="#e6f2f7"/><circle cx="350" cy="350" r="5" fill="#e6f2f7"/><circle cx="370" cy="350" r="5" fill="#e6f2f7"/><circle cx="390" cy="350" r="5" fill="#e6f2f7"/><circle cx="410" cy="350" r="5" fill="#e6f2f7"/><circle cx="430" cy="350" r="5" fill="#e6f2f7"/><circle cx="450" cy="350" r="5" fill="#e6f2f7"/><circle cx="470" cy="350" r="5" fill="#e6f2f7"/><circle cx="490" cy="350" r="5" fill="#e6f2f7"/><circle cx="190" cy="374" r="5" fill="#e6f2f7"/><circle cx="210" cy="374" r="5" fill="#e6f2f7"/><circle cx="230" cy="374" r="5" fill="#e6f2f7"/><circle cx="250" cy="374" r="5" fill="#e6f2f7"/><circle cx="270" cy="374" r="5" fill="#e6f2f7"/><circle cx="290" cy="374" r="5" fill="#e6f2f7"/><circle cx="310" cy="374" r="5" fill="#e6f2f7"/><circle cx="330" cy="374" r="5" fill="#e6f2f7"/><circle cx="350" cy="374" r="5" fill="#e6f2f7"/><circle cx="370" cy="374" r="5" fill="#e6f2f7"/><circle cx="390" cy="374" r="5" fill="#e6f2f7"/><circle cx="410" cy="374" r="5" fill="#e6f2f7"/><circle cx="430" cy="374" r="5" fill="#e6f2f7"/><circle cx="450" cy="374" r="5" fill="#e6f2f7"/><circle cx="470" cy="374" r="5" fill="#e6f2f7"/><circle cx="490" cy="374" r="5" fill="#e6f2f7"/><circle cx="190" cy="398" r="5" fill="#e6f2f7"/><circle cx="210" cy="398" r="5" fill="#e6f2f7"/><circle cx="230" cy="398" r="5" fill="#e6f2f7"/><circle cx="250" cy="398" r="5" fill="#e6f2f7"/><circle cx="270" cy="398" r="5" fill="#e6f2f7"/><circle cx="290" cy="398" r="5" fill="#e6f2f7"/><circle cx="310" cy="398" r="5" fill="#e6f2f7"/><circle cx="330" cy="398" r="5" fill="#e6f2f7"/><circle cx="350" cy="398" r="5" fill="#e6f2f7"/><circle cx="370" cy="398" r="5" fill="#e6f2f7"/><circle cx="390" cy="398" r="5" fill="#e6f2f7"/><circle cx="410" cy="398" r="5" fill="#e6f2f7"/><circle cx="430" cy="398" r="5" fill="#e6f2f7"/><circle cx="450" cy="398" r="5" fill="#e6f2f7"/><circle cx="470" cy="398" r="5" fill="#e6f2f7"/><circle cx="490" cy="398" r="5" fill="#e6f2f7"/><circle cx="190" cy="422" r="5" fill="#e6f2f7"/><circle cx="210" cy="422" r="5" fill="#e6f2f7"/><circle cx="230" cy="422" r="5" fill="#e6f2f7"/><circle cx="250" cy="422" r="5" fill="#e6f2f7"/><circle cx="270" cy="422" r="5" fill="#e6f2f7"/><circle cx="290" cy="422" r="5" fill="#e6f2f7"/><circle cx="310" cy="422" r="5" fill="#e6f2f7"/><circle cx="330" cy="422" r="5" fill="#e6f2f7"/><circle cx="350" cy="422" r="5" fill="#e6f2f7"/><circle cx="370" cy="422" r="5" fill="#e6f2f7"/><circle cx="390" cy="422" r="5" fill="#e6f2f7"/><circle cx="410" cy="422" r="5" fill="#e6f2f7"/><circle cx="430" cy="422" r="5" fill="#e6f2f7"/><circle cx="450" cy="422" r="5" fill="#e6f2f7"/><circle cx="470" cy="422" r="5" fill="#e6f2f7"/><circle cx="490" cy="422" r="5" fill="#e6f2f7"/><circle cx="190" cy="446" r="5" fill="#e6f2f7"/><circle cx="210" cy="446" r="5" fill="#e6f2f7"/><circle cx="230" cy="446" r="5" fill="#e6f2f7"/><circle cx="250" cy="446" r="5" fill="#e6f2f7"/><circle cx="270" cy="446" r="5" fill="#e6f2f7"/><circle cx="290" cy="446" r="5" fill="#e6f2f7"/><circle cx="310" cy="446" r="5" fill="#e6f2f7"/><circle cx="330" cy="446" r="5" fill="#e6f2f7"/><circle cx="350" cy="446" r="5" fill="#e6f2f7"/><circle cx="370" cy="446" r="5" fill="#e6f2f7"/><circle cx="390" cy="446" r="5" fill="#e6f2f7"/><circle cx="410" cy="446" r="5" fill="#e6f2f7"/><circle cx="430" cy="446" r="5" fill="#e6f2f7"/><circle cx="450" cy="446" r="5" fill="#e6f2f7"/><circle cx="470" cy="446" r="5" fill="#e6f2f7"/><circle cx="490" cy="446" r="5" fill="#e6f2f7"/><circle cx="190" cy="470" r="5" fill="#e6f2f7"/><circle cx="210" cy="470" r="5" fill="#e6f2f7"/><circle cx="230" cy="470" r="5" fill="#e6f2f7"/><circle cx="250" cy="470" r="5" fill="#e6f2f7"/><circle cx="270" cy="470" r="5" fill="#e6f2f7"/><circle cx="290" cy="470" r="5" fill="#e6f2f7"/><circle cx="310" cy="470" r="5" fill="#e6f2f7"/><circle cx="330" cy="470" r="5" fill="#e6f2f7"/><circle cx="350" cy="470" r="5" fill="#e6f2f7"/><circle cx="370" cy="470" r="5" fill="#e6f2f7"/><circle cx="390" cy="470" r="5" fill="#e6f2f7"/><circle cx="410" cy="470" r="5" fill="#e6f2f7"/><circle cx="430" cy="470" r="5" fill="#e6f2f7"/><circle cx="450" cy="470" r="5" fill="#e6f2f7"/><circle cx="470" cy="470" r="5" fill="#e6f2f7"/><circle cx="490" cy="470" r="5" fill="#e6f2f7"/><circle cx="190" cy="494" r="5" fill="#e6f2f7"/><circle cx="210" cy="494" r="5" fill="#e6f2f7"/><circle cx="230" cy="494" r="5" fill="#e6f2f7"/><circle cx="250" cy="494" r="5" fill="#e6f2f7"/><circle cx="270" cy="494" r="5" fill="#e6f2f7"/><circle cx="290" cy="494" r="5" fill="#e6f2f7"/><circle cx="310" cy="494" r="5" fill="#e6f2f7"/><circle cx="330" cy="494" r="5" fill="#e6f2f7"/><circle cx="350" cy="494" r="5" fill="#e6f2f7"/><circle cx="370" cy="494" r="5" fill="#e6f2f7"/><circle cx="390" cy="494" r="5" fill="#e6f2f7"/><circle cx="410" cy="494" r="5" fill="#e6f2f7"/><circle cx="430" cy="494" r="5" fill="#e6f2f7"/><circle cx="450" cy="494" r="5" fill="#e6f2f7"/><circle cx="470" cy="494" r="5" fill="#e6f2f7"/><circle cx="490" cy="494" r="5" fill="#e6f2f7"/><circle cx="190" cy="518" r="5" fill="#e6f2f7"/><circle cx="210" cy="518" r="5" fill="#e6f2f7"/><circle cx="230" cy="518" r="5" fill="#e6f2f7"/><circle cx="250" cy="518" r="5" fill="#e6f2f7"/><circle cx="270" cy="518" r="5" fill="#e6f2f7"/><circle cx="290" cy="518" r="5" fill="#e6f2f7"/><circle cx="310" cy="518" r="5" fill="#e6f2f7"/><circle cx="330" cy="518" r="5" fill="#e6f2f7"/><circle cx="350" cy="518" r="5" fill="#e6f2f7"/><circle cx="370" cy="518" r="5" fill="#e6f2f7"/><circle cx="390" cy="518" r="5" fill="#e6f2f7"/><circle cx="410" cy="518" r="5" fill="#e6f2f7"/><circle cx="430" cy="518" r="5" fill="#e6f2f7"/><circle cx="450" cy="518" r="5" fill="#e6f2f7"/><circle cx="470" cy="518" r="5" fill="#e6f2f7"/><circle cx="490" cy="518" r="5" fill="#e6f2f7"/></g></g></svg>