<svg xmlns="http://www.w3.org/2000/svg" viewBox="0 0 700 820"><defs><filter id="s"><feDropShadow dx="0" dy="18" stdDeviation="18" flood-color="#11345a" flood-opacity=".16"/></filter></defs><rect width="700" height="820" rx="50" fill="#f7fbfd"/><ellipse cx="350" cy="745" rx="210" ry="42" fill="#12345a" opacity=".12"/><g filter="url(#s)"><rect x="160" y="100" width="380" height="520" rx="110" fill="#fff" stroke="#dce8ef" stroke-width="4"/><ellipse cx="350" cy="82" rx="132" ry="32" fill="#dbe4ea"/><ellipse cx="350" cy="78" rx="105" ry="18" fill="#2b333b"/><circle cx="350" cy="210" r="33" fill="#14345f"/><text x="350" y="221" font-size="24" fill="#8be0ff" text-anchor="middle" font-family="Arial">18</text><text x="350" y="300" font-family="Arial" font-size="23" fill="#94a4b3" text-anchor="middle" letter-spacing="4">AERLUNE</text><g><circle cx="190" cy="360" r="5" fill="#e6f2f7"/><circle cx="210" cy="360" r="5" fill="#e6f2f7"/><circle cx="230" cy="360" r="5" fill="#e6f2f7"/><circle cx="250" cy="360" r="5" fill="#e6f2f7"/><circle cx="270" cy="360" r="5" fill="#e6f2f7"/><circle cx="290" cy="360" r="5" fill="#e6f2f7"/><circle cx="310" cy="360" r="5" fill="#e6f2f7"/><circle cx="330" cy="360" r="5" fill="#e6f2f7"/><circle cx="350" cy="360" r="5" fill="#e6f2f7"/><circle cx="370" cy="360" r="5" fill="#e6f2f7"/><circle cx="390" cy="360" r="5" fill="#e6f2f7"/><circle cx="410" cy="360" r="5" fill="#e6f2f7"/><circle cx="430" cy="360" r="5" fill="#e6f2f7"/><circle cx="450" cy="360" r="5" fill="#e6f2f7"/><circle cx="470" cy="360" r="5" fill="#e6f2f7"/><circle cx="490" cy="360" r="5" fill="#e6f2f7"/><circle cx="190" cy="384" r="5" fill="#e6f2f7"/><circle cx="210" cy="384" r="5" fill="#e6f2f7"/><circle cx="230" cy="384" r="5" fill="#e6f2f7"/><circle cx="250" cy="384" r="5" fill="#e6f2f7"/><circle cx="270" cy="384" r="5" fill="#e6f2f7"/><circle cx="290" cy="384" r="5" fill="#e6f2f7"/><circle cx="310" cy="384" r="5" fill="#e6f2f7"/><circle cx="330" cy="384" r="5" fill="#e6f2f7"/><circle cx="350" cy="384" r="5" fill="#e6f2f7"/><circle cx="370" cy="384" r="5" fill="#e6f2f7"/><circle cx="390" cy="384" r="5" fill="#e6f2f7"/><circle cx="410" cy="384" r="5" fill="#e6f2f7"/><circle cx="430" cy="384" r="5" fill="#e6f2f7"/><circle cx="450" cy="384" r="5" fill="#e6f2f7"/><circle cx="470" cy="384" r="5" fill="#e6f2f7"/><circle cx="490" cy="384" r="5" fill="#e6f2f7"/><circle cx="190" cy="408" r="5" fill="#e6f2f7"/><circle cx="210" cy="408" r="5" fill="#e6f2f7"/><circle cx="230" cy="408" r="5" fill="#e6f2f7"/><circle cx="250" cy="408" r="5" fill="#e6f2f7"/><circle cx="270" cy="408" r="5" fill="#e6f2f7"/><circle cx="290" cy="408" r="5" fill="#e6f2f7"/><circle cx="310" cy="408" r="5" fill="#e6f2f7"/><circle cx="330" cy="408" r="5" fill="#e6f2f7"/><circle cx="350" cy="408" r="5" fill="#e6f2f7"/><circle cx="370" cy="408" r="5" fill="#e6f2f7"/><circle cx="390" cy="408" r="5" fill="#e6f2f7"/><circle cx="410" cy="408" r="5" fill="#e6f2f7"/><circle cx="430" cy="408" r="5" fill="#e6f2f7"/><circle cx="450" cy="408" r="5" fill="#e6f2f7"/><circle cx="470" cy="408" r="5" fill="#e6f2f7"/><circle cx="490" cy="408" r="5" fill="#e6f2f7"/><circle cx="190" cy="432" r="5" fill="#e6f2f7"/><circle cx="210" cy="432" r="5" fill="#e6f2f7"/><circle cx="230" cy="432" r="5" fill="#e6f2f7"/><circle cx="250" cy="432" r="5" fill="#e6f2f7"/><circle cx="270" cy="432" r="5" fill="#e6f2f7"/><circle cx="290" cy="432" r="5" fill="#e6f2f7"/><circle cx="310" cy="432" r="5" fill="#e6f2f7"/><circle cx="330" cy="432" r="5" fill="#e6f2f7"/><circle cx="350" cy="432" r="5" fill="#e6f2f7"/><circle cx="370" cy="432" r="5" fill="#e6f2f7"/><circle cx="390" cy="432" r="5" fill="#e6f2f7"/><circle cx="410" cy="432" r="5" fill="#e6f2f7"/><circle cx="430" cy="432" r="5" fill="#e6f2f7"/><circle cx="450" cy="432" r="5" fill="#e6f2f7"/><circle cx="470" cy="432" r="5" fill="#e6f2f7"/><circle cx="490" cy="432" r="5" fill="#e6f2f7"/><circle cx="190" cy="456" r="5" fill="#e6f2f7"/><circle cx="210" cy="456" r="5" fill="#e6f2f7"/><circle cx="230" cy="456" r="5" fill="#e6f2f7"/><circle cx="250" cy="456" r="5" fill="#e6f2f7"/><circle cx="270" cy="456" r="5" fill="#e6f2f7"/><circle cx="290" cy="456" r="5" fill="#e6f2f7"/><circle cx="310" cy="456" r="5" fill="#e6f2f7"/><circle cx="330" cy="456" r="5" fill="#e6f2f7"/><circle cx="350" cy="456" r="5" fill="#e6f2f7"/><circle cx="370" cy="456" r="5" fill="#e6f2f7"/><circle cx="390" cy="456" r="5" fill="#e6f2f7"/><circle cx="410" cy="456" r="5" fill="#e6f2f7"/><circle cx="430" cy="456" r="5" fill="#e6f2f7"/><circle cx="450" cy="456" r="5" fill="#e6f2f7"/><circle cx="470" cy="456" r="5" fill="#e6f2f7"/><circle cx="490" cy="456" r="5" fill="#e6f2f7"/><circle cx="190" cy="480" r="5" fill="#e6f2f7"/><circle cx="210" cy="480" r="5" fill="#e6f2f7"/><circle cx="230" cy="480" r="5" fill="#e6f2f7"/><circle cx="250" cy="480" r="5" fill="#e6f2f7"/><circle cx="270" cy="480" r="5" fill="#e6f2f7"/><circle cx="290" cy="480" r="5" fill="#e6f2f7"/><circle cx="310" cy="480" r="5" fill="#e6f2f7"/><circle cx="330" cy="480" r="5" fill="#e6f2f7"/><circle cx="350" cy="480" r="5" fill="#e6f2f7"/><circle cx="370" cy="480" r="5" fill="#e6f2f7"/><circle cx="390" cy="480" r="5" fill="#e6f2f7"/><circle cx="410" cy="480" r="5" fill="#e6f2f7"/><circle cx="430" cy="480" r="5" fill="#e6f2f7"/><circle cx="450" cy="480" r="5" fill="#e6f2f7"/><circle cx="470" cy="480" r="5" fill="#e6f2f7"/><circle cx="490" cy="480" r="5" fill="#e6f2f7"/><circle cx="190" cy="504" r="5" fill="#e6f2f7"/><circle cx="210" cy="504" r="5" fill="#e6f2f7"/><circle cx="230" cy="504" r="5" fill="#e6f2f7"/><circle cx="250" cy="504" r="5" fill="#e6f2f7"/><circle cx="270" cy="504" r="5" fill="#e6f2f7"/><circle cx="290" cy="504" r="5" fill="#e6f2f7"/><circle cx="310" cy="504" r="5" fill="#e6f2f7"/><circle cx="330" cy="504" r="5" fill="#e6f2f7"/><circle cx="350" cy="504" r="5" fill="#e6f2f7"/><circle cx="370" cy="504" r="5" fill="#e6f2f7"/><circle cx="390" cy="504" r="5" fill="#e6f2f7"/><circle cx="410" cy="504" r="5" fill="#e6f2f7"/><circle cx="430" cy="504" r="5" fill="#e6f2f7"/><circle cx="450" cy="504" r="5" fill="#e6f2f7"/><circle cx="470" cy="504" r="5" fill="#e6f2f7"/><circle cx="490" cy="504" r="5" fill="#e6f2f7"/><circle cx="190" cy="528" r="5" fill="#e6f2f7"/><circle cx="210" cy="528" r="5" fill="#e6f2f7"/><circle cx="230" cy="528" r="5" fill="#e6f2f7"/><circle cx="250" cy="528" r="5" fill="#e6f2f7"/><circle cx="270" cy="528" r="5" fill="#e6f2f7"/><circle cx="290" cy="528" r="5" fill="#e6f2f7"/><circle cx="310" cy="528" r="5" fill="#e6f2f7"/><circle cx="330" cy="528" r="5" fill="#e6f2f7"/><circle cx="350" cy="528" r="5" fill="#e6f2f7"/><circle cx="370" cy="528" r="5" fill="#e6f2f7"/><circle cx="390" cy="528" r="5" fill="#e6f2f7"/><circle cx="410" cy="528" r="5" fill="#e6f2f7"/><circle cx="430" cy="528" r="5" fill="#e6f2f7"/><circle cx="450" cy="528" r="5" fill="#e6f2f7"/><circle cx="470" cy="528" r="5" fill="#e6f2f7"/><circle cx="490" cy="528" r="5" fill="#e6f2f7"/></g></g></svg>