<svg xmlns="http://www.w3.org/2000/svg" viewBox="0 0 700 820"><defs><filter id="s"><feDropShadow dx="0" dy="18" stdDeviation="18" flood-color="#11345a" flood-opacity=".16"/></filter></defs><rect width="700" height="820" rx="50" fill="#f7fbfd"/><ellipse cx="350" cy="745" rx="210" ry="42" fill="#12345a" opacity=".12"/><g filter="url(#s)"><rect x="145" y="70" width="410" height="610" rx="94" fill="#fff" stroke="#dce8ef" stroke-width="4"/><ellipse cx="350" cy="82" rx="132" ry="32" fill="#dbe4ea"/><ellipse cx="350" cy="78" rx="105" ry="18" fill="#2b333b"/><circle cx="350" cy="188" r="36" fill="#14345f"/><text x="350" y="200" font-size="26" fill="#8be0ff" text-anchor="middle" font-family="Arial">24</text><text x="350" y="300" font-family="Arial" font-size="23" fill="#94a4b3" text-anchor="middle" letter-spacing="4">AERLUNE</text><g><circle cx="190" cy="370" r="5" fill="#e6f2f7"/><circle cx="210" cy="370" r="5" fill="#e6f2f7"/><circle cx="230" cy="370" r="5" fill="#e6f2f7"/><circle cx="250" cy="370" r="5" fill="#e6f2f7"/><circle cx="270" cy="370" r="5" fill="#e6f2f7"/><circle cx="290" cy="370" r="5" fill="#e6f2f7"/><circle cx="310" cy="370" r="5" fill="#e6f2f7"/><circle cx="330" cy="370" r="5" fill="#e6f2f7"/><circle cx="350" cy="370" r="5" fill="#e6f2f7"/><circle cx="370" cy="370" r="5" fill="#e6f2f7"/><circle cx="390" cy="370" r="5" fill="#e6f2f7"/><circle cx="410" cy="370" r="5" fill="#e6f2f7"/><circle cx="430" cy="370" r="5" fill="#e6f2f7"/><circle cx="450" cy="370" r="5" fill="#e6f2f7"/><circle cx="470" cy="370" r="5" fill="#e6f2f7"/><circle cx="490" cy="370" r="5" fill="#e6f2f7"/><circle cx="190" cy="394" r="5" fill="#e6f2f7"/><circle cx="210" cy="394" r="5" fill="#e6f2f7"/><circle cx="230" cy="394" r="5" fill="#e6f2f7"/><circle cx="250" cy="394" r="5" fill="#e6f2f7"/><circle cx="270" cy="394" r="5" fill="#e6f2f7"/><circle cx="290" cy="394" r="5" fill="#e6f2f7"/><circle cx="310" cy="394" r="5" fill="#e6f2f7"/><circle cx="330" cy="394" r="5" fill="#e6f2f7"/><circle cx="350" cy="394" r="5" fill="#e6f2f7"/><circle cx="370" cy="394" r="5" fill="#e6f2f7"/><circle cx="390" cy="394" r="5" fill="#e6f2f7"/><circle cx="410" cy="394" r="5" fill="#e6f2f7"/><circle cx="430" cy="394" r="5" fill="#e6f2f7"/><circle cx="450" cy="394" r="5" fill="#e6f2f7"/><circle cx="470" cy="394" r="5" fill="#e6f2f7"/><circle cx="490" cy="394" r="5" fill="#e6f2f7"/><circle cx="190" cy="418" r="5" fill="#e6f2f7"/><circle cx="210" cy="418" r="5" fill="#e6f2f7"/><circle cx="230" cy="418" r="5" fill="#e6f2f7"/><circle cx="250" cy="418" r="5" fill="#e6f2f7"/><circle cx="270" cy="418" r="5" fill="#e6f2f7"/><circle cx="290" cy="418" r="5" fill="#e6f2f7"/><circle cx="310" cy="418" r="5" fill="#e6f2f7"/><circle cx="330" cy="418" r="5" fill="#e6f2f7"/><circle cx="350" cy="418" r="5" fill="#e6f2f7"/><circle cx="370" cy="418" r="5" fill="#e6f2f7"/><circle cx="390" cy="418" r="5" fill="#e6f2f7"/><circle cx="410" cy="418" r="5" fill="#e6f2f7"/><circle cx="430" cy="418" r="5" fill="#e6f2f7"/><circle cx="450" cy="418" r="5" fill="#e6f2f7"/><circle cx="470" cy="418" r="5" fill="#e6f2f7"/><circle cx="490" cy="418" r="5" fill="#e6f2f7"/><circle cx="190" cy="442" r="5" fill="#e6f2f7"/><circle cx="210" cy="442" r="5" fill="#e6f2f7"/><circle cx="230" cy="442" r="5" fill="#e6f2f7"/><circle cx="250" cy="442" r="5" fill="#e6f2f7"/><circle cx="270" cy="442" r="5" fill="#e6f2f7"/><circle cx="290" cy="442" r="5" fill="#e6f2f7"/><circle cx="310" cy="442" r="5" fill="#e6f2f7"/><circle cx="330" cy="442" r="5" fill="#e6f2f7"/><circle cx="350" cy="442" r="5" fill="#e6f2f7"/><circle cx="370" cy="442" r="5" fill="#e6f2f7"/><circle cx="390" cy="442" r="5" fill="#e6f2f7"/><circle cx="410" cy="442" r="5" fill="#e6f2f7"/><circle cx="430" cy="442" r="5" fill="#e6f2f7"/><circle cx="450" cy="442" r="5" fill="#e6f2f7"/><circle cx="470" cy="442" r="5" fill="#e6f2f7"/><circle cx="490" cy="442" r="5" fill="#e6f2f7"/><circle cx="190" cy="466" r="5" fill="#e6f2f7"/><circle cx="210" cy="466" r="5" fill="#e6f2f7"/><circle cx="230" cy="466" r="5" fill="#e6f2f7"/><circle cx="250" cy="466" r="5" fill="#e6f2f7"/><circle cx="270" cy="466" r="5" fill="#e6f2f7"/><circle cx="290" cy="466" r="5" fill="#e6f2f7"/><circle cx="310" cy="466" r="5" fill="#e6f2f7"/><circle cx="330" cy="466" r="5" fill="#e6f2f7"/><circle cx="350" cy="466" r="5" fill="#e6f2f7"/><circle cx="370" cy="466" r="5" fill="#e6f2f7"/><circle cx="390" cy="466" r="5" fill="#e6f2f7"/><circle cx="410" cy="466" r="5" fill="#e6f2f7"/><circle cx="430" cy="466" r="5" fill="#e6f2f7"/><circle cx="450" cy="466" r="5" fill="#e6f2f7"/><circle cx="470" cy="466" r="5" fill="#e6f2f7"/><circle cx="490" cy="466" r="5" fill="#e6f2f7"/><circle cx="190" cy="490" r="5" fill="#e6f2f7"/><circle cx="210" cy="490" r="5" fill="#e6f2f7"/><circle cx="230" cy="490" r="5" fill="#e6f2f7"/><circle cx="250" cy="490" r="5" fill="#e6f2f7"/><circle cx="270" cy="490" r="5" fill="#e6f2f7"/><circle cx="290" cy="490" r="5" fill="#e6f2f7"/><circle cx="310" cy="490" r="5" fill="#e6f2f7"/><circle cx="330" cy="490" r="5" fill="#e6f2f7"/><circle cx="350" cy="490" r="5" fill="#e6f2f7"/><circle cx="370" cy="490" r="5" fill="#e6f2f7"/><circle cx="390" cy="490" r="5" fill="#e6f2f7"/><circle cx="410" cy="490" r="5" fill="#e6f2f7"/><circle cx="430" cy="490" r="5" fill="#e6f2f7"/><circle cx="450" cy="490" r="5" fill="#e6f2f7"/><circle cx="470" cy="490" r="5" fill="#e6f2f7"/><circle cx="490" cy="490" r="5" fill="#e6f2f7"/><circle cx="190" cy="514" r="5" fill="#e6f2f7"/><circle cx="210" cy="514" r="5" fill="#e6f2f7"/><circle cx="230" cy="514" r="5" fill="#e6f2f7"/><circle cx="250" cy="514" r="5" fill="#e6f2f7"/><circle cx="270" cy="514" r="5" fill="#e6f2f7"/><circle cx="290" cy="514" r="5" fill="#e6f2f7"/><circle cx="310" cy="514" r="5" fill="#e6f2f7"/><circle cx="330" cy="514" r="5" fill="#e6f2f7"/><circle cx="350" cy="514" r="5" fill="#e6f2f7"/><circle cx="370" cy="514" r="5" fill="#e6f2f7"/><circle cx="390" cy="514" r="5" fill="#e6f2f7"/><circle cx="410" cy="514" r="5" fill="#e6f2f7"/><circle cx="430" cy="514" r="5" fill="#e6f2f7"/><circle cx="450" cy="514" r="5" fill="#e6f2f7"/><circle cx="470" cy="514" r="5" fill="#e6f2f7"/><circle cx="490" cy="514" r="5" fill="#e6f2f7"/><circle cx="190" cy="538" r="5" fill="#e6f2f7"/><circle cx="210" cy="538" r="5" fill="#e6f2f7"/><circle cx="230" cy="538" r="5" fill="#e6f2f7"/><circle cx="250" cy="538" r="5" fill="#e6f2f7"/><circle cx="270" cy="538" r="5" fill="#e6f2f7"/><circle cx="290" cy="538" r="5" fill="#e6f2f7"/><circle cx="310" cy="538" r="5" fill="#e6f2f7"/><circle cx="330" cy="538" r="5" fill="#e6f2f7"/><circle cx="350" cy="538" r="5" fill="#e6f2f7"/><circle cx="370" cy="538" r="5" fill="#e6f2f7"/><circle cx="390" cy="538" r="5" fill="#e6f2f7"/><circle cx="410" cy="538" r="5" fill="#e6f2f7"/><circle cx="430" cy="538" r="5" fill="#e6f2f7"/><circle cx="450" cy="538" r="5" fill="#e6f2f7"/><circle cx="470" cy="538" r="5" fill="#e6f2f7"/><circle cx="490" cy="538" r="5" fill="#e6f2f7"/></g></g></svg>