<svg xmlns="http://www.w3.org/2000/svg" viewBox="0 0 700 820"><defs><filter id="s"><feDropShadow dx="0" dy="18" stdDeviation="18" flood-color="#11345a" flood-opacity=".18"/></filter><linearGradient id="water" x1="0" y1="0" x2="1" y2="1"><stop stop-color="#e2f9ff"/><stop offset="1" stop-color="#8bcfe4"/></linearGradient></defs><rect width="700" height="820" rx="50" fill="#f7fbfd"/><ellipse cx="350" cy="745" rx="210" ry="42" fill="#12345a" opacity=".12"/><rect x="185" y="80" width="330" height="410" rx="95" fill="#fff" stroke="#dce8ef" stroke-width="4" filter="url(#s)"/><ellipse cx="350" cy="88" rx="124" ry="33" fill="#dbe4ea"/><ellipse cx="350" cy="84" rx="96" ry="18" fill="#2b333b"/><circle cx="350" cy="183" r="34" fill="#14345f"/><text x="350" y="195" font-family="Arial" font-size="25" fill="#8be0ff" text-anchor="middle">41</text><text x="350" y="306" font-family="Arial" font-size="22" fill="#94a4b3" text-anchor="middle" letter-spacing="4">AERLUNE</text><rect x="180" y="445" width="340" height="260" rx="68" fill="url(#water)" opacity=".75" stroke="#cfe9f4"/><path d="M205 577c80-45 146 36 226-3 39-19 63-52 84-82v184H205z" fill="#56b3cf" opacity=".23"/><g fill="#e6f2f7"><circle cx="215" cy="350" r="4"/><circle cx="239" cy="350" r="4"/><circle cx="263" cy="350" r="4"/><circle cx="287" cy="350" r="4"/><circle cx="311" cy="350" r="4"/><circle cx="335" cy="350" r="4"/><circle cx="359" cy="350" r="4"/><circle cx="383" cy="350" r="4"/><circle cx="407" cy="350" r="4"/><circle cx="431" cy="350" r="4"/><circle cx="455" cy="350" r="4"/><circle cx="479" cy="350" r="4"/><circle cx="215" cy="372" r="4"/><circle cx="239" cy="372" r="4"/><circle cx="263" cy="372" r="4"/><circle cx="287" cy="372" r="4"/><circle cx="311" cy="372" r="4"/><circle cx="335" cy="372" r="4"/><circle cx="359" cy="372" r="4"/><circle cx="383" cy="372" r="4"/><circle cx="407" cy="372" r="4"/><circle cx="431" cy="372" r="4"/><circle cx="455" cy="372" r="4"/><circle cx="479" cy="372" r="4"/><circle cx="215" cy="394" r="4"/><circle cx="239" cy="394" r="4"/><circle cx="263" cy="394" r="4"/><circle cx="287" cy="394" r="4"/><circle cx="311" cy="394" r="4"/><circle cx="335" cy="394" r="4"/><circle cx="359" cy="394" r="4"/><circle cx="383" cy="394" r="4"/><circle cx="407" cy="394" r="4"/><circle cx="431" cy="394" r="4"/><circle cx="455" cy="394" r="4"/><circle cx="479" cy="394" r="4"/><circle cx="215" cy="416" r="4"/><circle cx="239" cy="416" r="4"/><circle cx="263" cy="416" r="4"/><circle cx="287" cy="416" r="4"/><circle cx="311" cy="416" r="4"/><circle cx="335" cy="416" r="4"/><circle cx="359" cy="416" r="4"/><circle cx="383" cy="416" r="4"/><circle cx="407" cy="416" r="4"/><circle cx="431" cy="416" r="4"/><circle cx="455" cy="416" r="4"/><circle cx="479" cy="416" r="4"/><circle cx="215" cy="438" r="4"/><circle cx="239" cy="438" r="4"/><circle cx="263" cy="438" r="4"/><circle cx="287" cy="438" r="4"/><circle cx="311" cy="438" r="4"/><circle cx="335" cy="438" r="4"/><circle cx="359" cy="438" r="4"/><circle cx="383" cy="438" r="4"/><circle cx="407" cy="438" r="4"/><circle cx="431" cy="438" r="4"/><circle cx="455" cy="438" r="4"/><circle cx="479" cy="438" r="4"/><circle cx="215" cy="460" r="4"/><circle cx="239" cy="460" r="4"/><circle cx="263" cy="460" r="4"/><circle cx="287" cy="460" r="4"/><circle cx="311" cy="460" r="4"/><circle cx="335" cy="460" r="4"/><circle cx="359" cy="460" r="4"/><circle cx="383" cy="460" r="4"/><circle cx="407" cy="460" r="4"/><circle cx="431" cy="460" r="4"/><circle cx="455" cy="460" r="4"/><circle cx="479" cy="460" r="4"/><circle cx="215" cy="482" r="4"/><circle cx="239" cy="482" r="4"/><circle cx="263" cy="482" r="4"/><circle cx="287" cy="482" r="4"/><circle cx="311" cy="482" r="4"/><circle cx="335" cy="482" r="4"/><circle cx="359" cy="482" r="4"/><circle cx="383" cy="482" r="4"/><circle cx="407" cy="482" r="4"/><circle cx="431" cy="482" r="4"/><circle cx="455" cy="482" r="4"/><circle cx="479" cy="482" r="4"/><circle cx="215" cy="504" r="4"/><circle cx="239" cy="504" r="4"/><circle cx="263" cy="504" r="4"/><circle cx="287" cy="504" r="4"/><circle cx="311" cy="504" r="4"/><circle cx="335" cy="504" r="4"/><circle cx="359" cy="504" r="4"/><circle cx="383" cy="504" r="4"/><circle cx="407" cy="504" r="4"/><circle cx="431" cy="504" r="4"/><circle cx="455" cy="504" r="4"/><circle cx="479" cy="504" r="4"/></g></svg>